<svg xmlns="http://www.w3.org/2000/svg" width="134.059" height="109.463" viewBox="0 0 134.059 109.463">
  <g id="medical" transform="translate(0 0)">
    <path id="Path_822" data-name="Path 822" d="M322.466,126.263H204.878a8.246,8.246,0,0,1-8.235-8.235V42.835a8.246,8.246,0,0,1,8.235-8.235h33.263a2.613,2.613,0,0,1,2.613,2.616V43.5h45.837V37.216A2.613,2.613,0,0,1,289.2,34.6h33.263a8.246,8.246,0,0,1,8.235,8.235v75.192A8.246,8.246,0,0,1,322.466,126.263ZM204.878,39.829a3.008,3.008,0,0,0-3.006,3.006v75.192a3.008,3.008,0,0,0,3.006,3.006H322.466a3.011,3.011,0,0,0,3.009-3.006V42.835a3.011,3.011,0,0,0-3.009-3.006H291.817v6.286a2.615,2.615,0,0,1-2.613,2.616H238.141a2.615,2.615,0,0,1-2.613-2.616V39.829Z" transform="translate(-196.643 -16.799)" fill="#4a148c"/>
    <path id="Path_823" data-name="Path 823" d="M264.083,51.329a2.613,2.613,0,0,1-2.613-2.613V34.661a1.135,1.135,0,0,0-1.133-1.133H216.769a1.135,1.135,0,0,0-1.136,1.133V48.716a2.613,2.613,0,0,1-5.226,0V34.661a6.368,6.368,0,0,1,6.362-6.362h43.568a6.368,6.368,0,0,1,6.359,6.362V48.716A2.613,2.613,0,0,1,264.083,51.329Z" transform="translate(-171.523 -28.299)" fill="#4a148c"/>
    <path id="Path_824" data-name="Path 824" d="M243.819,92.916H228.595a2.613,2.613,0,0,1-2.613-2.613V78.63H214.305a2.615,2.615,0,0,1-2.613-2.616V60.789a2.613,2.613,0,0,1,2.613-2.616h11.676V46.5a2.613,2.613,0,0,1,2.613-2.613h15.224a2.615,2.615,0,0,1,2.616,2.613V58.173h11.673a2.613,2.613,0,0,1,2.613,2.616V76.014a2.615,2.615,0,0,1-2.613,2.616H246.435V90.3A2.615,2.615,0,0,1,243.819,92.916Zm-12.611-5.229h10V76.014a2.613,2.613,0,0,1,2.613-2.613h11.676v-10H243.819a2.613,2.613,0,0,1-2.613-2.613V49.113h-10V60.789a2.613,2.613,0,0,1-2.613,2.613H216.921v10h11.673a2.613,2.613,0,0,1,2.613,2.613Z" transform="translate(-169.177 0.15)" fill="#4a148c"/>
    <path id="Path_825" data-name="Path 825" d="M204.413,126.263a2.615,2.615,0,0,1-2.616-2.613V37.216a2.615,2.615,0,1,1,5.229,0v86.433A2.613,2.613,0,0,1,204.413,126.263Z" transform="translate(-187.237 -16.799)" fill="#4a148c"/>
    <path id="Path_826" data-name="Path 826" d="M239.7,126.263a2.613,2.613,0,0,1-2.613-2.613V37.216a2.615,2.615,0,1,1,5.229,0v86.433A2.613,2.613,0,0,1,239.7,126.263Z" transform="translate(-122.822 -16.799)" fill="#4a148c"/>
  </g>
</svg>
